# xmcd CD database file
#
# Track frame offsets:
#	150
#	14217
#	25110
#	46980
#	64017
#	81472
#	96810
#	109522
#	119522
#	130945
#	149505
#	169950
#	186140
#	204027
#
# Disc length: 2882 seconds
#
# Revision: 1
# Processed by: cddbd v1.5.2PL0 Copyright (c) Steve Scherf et al.
# Submitted via: CDex 1.51
#
DISCID=c50b400e
DTITLE=Grazyna Auguscik And Paulinho Garcia - Fagile
DYEAR=2002
DGENRE=Jazz
TTITLE0=Noite Dos Mascarados
TTITLE1=Voce
TTITLE2=Fragile
TTITLE3=A Ra
TTITLE4=Bridges
TTITLE5=Cancao Da Estrada Sem Fim - Piosenka z niekonczacej sie drogi
TTITLE6=Batida Diferente
TTITLE7=Ponta De Areia
TTITLE8=Ponteio....Edu Lobo
TTITLE9=Samba Em Preludio
TTITLE10=Agua De Beber
TTITLE11=Essse Seu Olhar/So
TTITLE12=The Girl From Ipanema - Dziewczyna z Ipanemy
TTITLE13=So Danco O Samba
EXTD=YEAR: 2002
EXTT0=
EXTT1=
EXTT2=
EXTT3=
EXTT4=
EXTT5=
EXTT6=
EXTT7=
EXTT8=
EXTT9=
EXTT10=
EXTT11=
EXTT12=
EXTT13=
PLAYORDER=
